<svg version="1.1" id="Layer_1" xmlns="http://www.w3.org/2000/svg" xmlns:xlink="http://www.w3.org/1999/xlink" x="0px" y="0px"
	 width="100%" viewBox="0 0 135 172" enable-background="new 0 0 135 172" xml:space="preserve">
<path fill="#FCFCFC" opacity="1.000000" stroke="none" 
	d="
M80.000000,173.000000 
	C53.333332,173.000000 27.166666,173.000000 1.000000,173.000000 
	C1.000000,115.666664 1.000000,58.333332 1.000000,1.000000 
	C46.000000,1.000000 91.000000,1.000000 136.000000,1.000000 
	C136.000000,58.333332 136.000000,115.666664 136.000000,173.000000 
	C117.500000,173.000000 99.000000,173.000000 80.000000,173.000000 
M18.637545,109.772682 
	C19.775665,109.189018 20.913786,108.605354 22.693083,107.669296 
	C24.294683,103.906219 25.033539,99.326263 27.669357,96.542412 
	C34.046726,89.806847 45.264439,93.795609 47.152290,103.358696 
	C48.128464,108.303581 50.309010,110.066345 55.219364,109.850510 
	C62.204239,109.543503 69.212936,109.785347 76.211449,109.779976 
	C84.988609,109.773239 84.985519,109.766579 87.974861,101.308220 
	C88.138000,100.846611 88.417816,100.425331 88.651695,99.989777 
	C91.258141,95.135826 95.720695,92.826889 101.076523,93.559036 
	C106.048538,94.238716 109.974281,97.933708 111.027893,103.400955 
	C111.589851,106.317017 111.988373,109.006195 115.529770,109.726151 
	C122.932678,111.231110 129.748062,106.143814 130.098526,98.528862 
	C130.343430,93.207680 130.243500,87.866257 130.169174,82.535667 
	C130.027496,72.374329 124.154060,66.571220 113.889084,66.399696 
	C108.224716,66.305046 102.486061,66.824562 96.921303,66.053650 
	C93.639900,65.599060 90.093353,63.748978 87.628380,61.480713 
	C83.866341,58.018906 80.832527,53.732830 77.679230,49.650192 
	C73.081604,43.697533 67.061760,40.703136 59.619274,40.553455 
	C50.957645,40.379253 42.292801,40.174183 33.631149,40.235798 
	C19.649426,40.335262 8.921387,48.939503 4.945731,62.755154 
	C4.931060,63.506996 4.916389,64.258842 4.765878,65.845726 
	C4.662400,76.502434 4.406684,87.160843 4.525504,97.815071 
	C4.577791,102.503548 6.240441,106.639320 11.737467,108.901169 
	C12.837807,109.117035 13.938146,109.332901 15.753997,109.760353 
	C16.491657,109.707237 17.229317,109.654114 18.637545,109.772682 
M77.832108,118.179672 
	C71.306625,115.561150 65.057129,115.362778 58.149883,117.891304 
	C53.977661,119.418625 49.214470,118.563065 45.085392,114.376907 
	C38.168903,107.364815 27.069366,108.594315 20.076483,116.016586 
	C13.464075,123.035019 13.534299,133.958206 20.236000,140.827774 
	C27.527111,148.301514 38.634308,149.098068 45.668434,141.824600 
	C50.607346,136.717636 55.927429,137.743774 61.151535,139.539154 
	C65.538361,141.046768 69.281075,141.100159 73.638084,139.597092 
	C79.110840,137.709137 84.452209,136.774796 89.536507,141.995102 
	C96.347588,148.988373 107.547241,148.141708 114.656166,141.018631 
	C121.621483,134.039444 121.866180,123.543648 115.232925,116.278755 
	C108.346367,108.736443 97.408165,107.373283 90.209557,114.104134 
	C86.630165,117.450935 83.214020,118.688797 77.832108,118.179672 
z"/>
<path fill="#111111" opacity="1.000000" stroke="none" 
	d="
M11.250784,108.409691 
	C6.240441,106.639320 4.577791,102.503548 4.525504,97.815071 
	C4.406684,87.160843 4.662400,76.502434 5.104019,65.210983 
	C5.440612,63.912327 5.439063,63.248409 5.437513,62.584496 
	C8.921387,48.939503 19.649426,40.335262 33.631149,40.235798 
	C42.292801,40.174183 50.957645,40.379253 59.619274,40.553455 
	C67.061760,40.703136 73.081604,43.697533 77.679230,49.650192 
	C80.832527,53.732830 83.866341,58.018906 87.628380,61.480713 
	C90.093353,63.748978 93.639900,65.599060 96.921303,66.053650 
	C102.486061,66.824562 108.224716,66.305046 113.889084,66.399696 
	C124.154060,66.571220 130.027496,72.374329 130.169174,82.535667 
	C130.243500,87.866257 130.343430,93.207680 130.098526,98.528862 
	C129.748062,106.143814 122.932678,111.231110 115.529770,109.726151 
	C111.988373,109.006195 111.589851,106.317017 111.027893,103.400955 
	C109.974281,97.933708 106.048538,94.238716 101.076523,93.559036 
	C95.720695,92.826889 91.258141,95.135826 88.651695,99.989777 
	C88.417816,100.425331 88.138000,100.846611 87.974861,101.308220 
	C84.985519,109.766579 84.988609,109.773239 76.211449,109.779976 
	C69.212936,109.785347 62.204239,109.543503 55.219364,109.850510 
	C50.309010,110.066345 48.128464,108.303581 47.152290,103.358696 
	C45.264439,93.795609 34.046726,89.806847 27.669357,96.542412 
	C25.033539,99.326263 24.294683,103.906219 22.016075,107.821671 
	C20.215038,108.516357 19.091007,109.058678 17.966976,109.600990 
	C17.229317,109.654114 16.491657,109.707237 15.265697,109.302902 
	C13.601860,108.700203 12.426322,108.554947 11.250784,108.409691 
M57.362453,49.860424 
	C50.370800,49.635864 43.380535,49.293545 36.387207,49.211319 
	C21.934704,49.041382 13.639404,57.097309 13.432359,71.471878 
	C13.319596,79.300545 13.381081,87.132080 13.412291,94.962128 
	C13.417813,96.347664 13.661330,97.732254 13.892901,100.132690 
	C14.999475,98.797935 15.525984,98.399963 15.734957,97.875481 
	C19.273483,88.994408 26.053871,84.306221 35.353977,84.304420 
	C44.823296,84.302582 51.789177,88.868393 55.374733,98.072304 
	C55.831074,99.243690 57.674332,100.571609 58.922581,100.620789 
	C65.398293,100.875900 71.889427,100.739487 78.512779,100.739487 
	C81.567543,91.068878 87.666954,84.883797 97.806786,84.275772 
	C108.678650,83.623856 115.862045,89.361588 120.566154,99.263420 
	C121.222534,96.059196 121.227974,93.044388 121.221603,90.029610 
	C121.190933,75.511971 121.145538,74.776161 106.564751,75.653404 
	C92.599670,76.493607 81.766220,72.688118 74.492912,60.362965 
	C73.656204,58.945110 72.421600,57.767857 71.442665,56.427074 
	C68.185089,51.965378 64.052254,49.286671 57.362453,49.860424 
z"/>
<path fill="#0F0F0F" opacity="1.000000" stroke="none" 
	d="
M78.273750,118.180664 
	C83.214020,118.688797 86.630165,117.450935 90.209557,114.104134 
	C97.408165,107.373283 108.346367,108.736443 115.232925,116.278755 
	C121.866180,123.543648 121.621483,134.039444 114.656166,141.018631 
	C107.547241,148.141708 96.347588,148.988373 89.536507,141.995102 
	C84.452209,136.774796 79.110840,137.709137 73.638084,139.597092 
	C69.281075,141.100159 65.538361,141.046768 61.151535,139.539154 
	C55.927429,137.743774 50.607346,136.717636 45.668434,141.824600 
	C38.634308,149.098068 27.527111,148.301514 20.236000,140.827774 
	C13.534299,133.958206 13.464075,123.035019 20.076483,116.016586 
	C27.069366,108.594315 38.168903,107.364815 45.085392,114.376907 
	C49.214470,118.563065 53.977661,119.418625 58.149883,117.891304 
	C65.057129,115.362778 71.306625,115.561150 78.273750,118.180664 
M42.700748,126.125191 
	C39.200581,118.611252 31.016769,116.675644 26.541420,122.362564 
	C23.813227,125.829330 23.328718,129.578812 25.826406,133.420456 
	C28.321178,137.257599 31.904346,138.316818 36.197735,137.204163 
	C40.515594,136.085159 42.775787,132.511292 42.700748,126.125191 
M100.742081,137.537186 
	C103.556641,136.172668 107.107414,135.456360 109.013268,133.291763 
	C111.874641,130.041916 111.373558,125.752380 108.536613,122.373268 
	C105.685768,118.977600 101.423508,117.705002 97.874695,120.103676 
	C95.259712,121.871140 92.758194,125.529823 92.445259,128.575867 
	C91.976028,133.143158 94.880272,136.657089 100.742081,137.537186 
M64.521698,126.016556 
	C64.914528,127.885628 64.988708,129.936890 65.890862,131.514771 
	C66.167999,131.999481 69.230019,131.694000 70.069672,130.829956 
	C70.913246,129.961853 71.139938,126.887276 70.653847,126.628860 
	C69.056343,125.779549 67.012680,125.769417 64.521698,126.016556 
z"/>
<path fill="#222222" opacity="1.000000" stroke="none" 
	d="
M18.302261,109.686836 
	C19.091007,109.058678 20.215038,108.516357 21.695488,107.997864 
	C20.913786,108.605354 19.775665,109.189018 18.302261,109.686836 
z"/>
<path fill="#222222" opacity="1.000000" stroke="none" 
	d="
M11.494125,108.655426 
	C12.426322,108.554947 13.601860,108.700203 14.907942,109.197113 
	C13.938146,109.332901 12.837807,109.117035 11.494125,108.655426 
z"/>
<path fill="#6B6B6B" opacity="1.000000" stroke="none" 
	d="
M5.191622,62.669823 
	C5.439063,63.248409 5.440612,63.912327 5.171940,64.793457 
	C4.916389,64.258842 4.931060,63.506996 5.191622,62.669823 
z"/>
<path fill="#F7F7F7" opacity="1.000000" stroke="none" 
	d="
M57.827667,49.845055 
	C64.052254,49.286671 68.185089,51.965378 71.442665,56.427074 
	C72.421600,57.767857 73.656204,58.945110 74.492912,60.362965 
	C81.766220,72.688118 92.599670,76.493607 106.564751,75.653404 
	C121.145538,74.776161 121.190933,75.511971 121.221603,90.029610 
	C121.227974,93.044388 121.222534,96.059196 120.566154,99.263420 
	C115.862045,89.361588 108.678650,83.623856 97.806786,84.275772 
	C87.666954,84.883797 81.567543,91.068878 78.512779,100.739487 
	C71.889427,100.739487 65.398293,100.875900 58.922581,100.620789 
	C57.674332,100.571609 55.831074,99.243690 55.374733,98.072304 
	C51.789177,88.868393 44.823296,84.302582 35.353977,84.304420 
	C26.053871,84.306221 19.273483,88.994408 15.734957,97.875481 
	C15.525984,98.399963 14.999475,98.797935 13.892901,100.132690 
	C13.661330,97.732254 13.417813,96.347664 13.412291,94.962128 
	C13.381081,87.132080 13.319596,79.300545 13.432359,71.471878 
	C13.639404,57.097309 21.934704,49.041382 36.387207,49.211319 
	C43.380535,49.293545 50.370800,49.635864 57.827667,49.845055 
z"/>
<path fill="#F0F0F0" opacity="1.000000" stroke="none" 
	d="
M42.768894,126.514023 
	C42.775787,132.511292 40.515594,136.085159 36.197735,137.204163 
	C31.904346,138.316818 28.321178,137.257599 25.826406,133.420456 
	C23.328718,129.578812 23.813227,125.829330 26.541420,122.362564 
	C31.016769,116.675644 39.200581,118.611252 42.768894,126.514023 
z"/>
<path fill="#F2F2F2" opacity="1.000000" stroke="none" 
	d="
M100.372391,137.452911 
	C94.880272,136.657089 91.976028,133.143158 92.445259,128.575867 
	C92.758194,125.529823 95.259712,121.871140 97.874695,120.103676 
	C101.423508,117.705002 105.685768,118.977600 108.536613,122.373268 
	C111.373558,125.752380 111.874641,130.041916 109.013268,133.291763 
	C107.107414,135.456360 103.556641,136.172668 100.372391,137.452911 
z"/>
<path fill="#E0E0E0" opacity="1.000000" stroke="none" 
	d="
M64.831070,125.726715 
	C67.012680,125.769417 69.056343,125.779549 70.653847,126.628860 
	C71.139938,126.887276 70.913246,129.961853 70.069672,130.829956 
	C69.230019,131.694000 66.167999,131.999481 65.890862,131.514771 
	C64.988708,129.936890 64.914528,127.885628 64.831070,125.726715 
z"/>
</svg>